<svg width="24" height="24" viewBox="0 0 24 24" fill="none" xmlns="http://www.w3.org/2000/svg">
<path d="M11.9999 1.50012C12.1918 1.50015 12.3798 1.55416 12.5429 1.6554C12.706 1.75666 12.8376 1.90131 12.9228 2.07336L15.2333 6.75208L15.33 6.92297C15.4373 7.0868 15.5741 7.22998 15.7333 7.34583C15.9456 7.50024 16.1923 7.60161 16.4521 7.63977L21.6181 8.39563H21.6171C21.8073 8.42319 21.9867 8.50323 22.1337 8.62708C22.2805 8.75085 22.3897 8.91323 22.4491 9.09583C22.5086 9.27861 22.5157 9.47463 22.4696 9.66125C22.4236 9.84784 22.326 10.0183 22.1884 10.1525L18.453 13.7902C18.2647 13.9737 18.1233 14.2002 18.0419 14.4503C17.9606 14.7004 17.941 14.9665 17.9853 15.2257L18.8671 20.3634L18.8817 20.506C18.8868 20.6498 18.8618 20.7935 18.8075 20.9279C18.7352 21.1069 18.6141 21.2617 18.4579 21.3751C18.3018 21.4885 18.1172 21.556 17.9247 21.5695C17.7322 21.5829 17.5394 21.542 17.3691 21.4513V21.4503L12.7528 19.0245C12.5204 18.9026 12.2615 18.839 11.9989 18.839C11.7363 18.839 11.4775 18.9025 11.245 19.0245L6.62882 21.4513C6.45866 21.5413 6.26711 21.583 6.0751 21.5695C5.88281 21.5558 5.69781 21.4875 5.5419 21.3741C5.38622 21.2608 5.26549 21.1063 5.19327 20.9279C5.12125 20.7497 5.09985 20.5547 5.13272 20.3654L6.01358 15.2267C6.05806 14.9674 6.03928 14.7005 5.95792 14.4503C5.87654 14.2002 5.73521 13.9737 5.54678 13.7902L1.81143 10.1534L1.81241 10.1525C1.67421 10.0186 1.57481 9.84991 1.52823 9.66321C1.48154 9.47605 1.48824 9.27931 1.54776 9.09583C1.60729 8.91237 1.71749 8.74921 1.86514 8.62512C2.01286 8.50102 2.19268 8.42069 2.3837 8.39368L7.54678 7.63879L7.73917 7.59875C7.92818 7.5473 8.10713 7.46254 8.26651 7.3468C8.47916 7.19235 8.65108 6.98771 8.76749 6.75208L11.0761 2.07336H11.0771C11.1622 1.90132 11.2938 1.75665 11.4569 1.6554C11.62 1.5542 11.808 1.50012 11.9999 1.50012ZM11.9843 2.505C11.9798 2.50781 11.975 2.51105 11.9726 2.51575L11.9735 2.51672L9.66397 7.19543C9.47583 7.57626 9.19805 7.90573 8.8544 8.1554C8.51066 8.40508 8.11077 8.56689 7.69034 8.62805L2.52628 9.38391H2.52335C2.51795 9.38474 2.51289 9.38724 2.5087 9.39075C2.50446 9.3943 2.50166 9.39918 2.49991 9.40442C2.49818 9.40976 2.49758 9.41557 2.49893 9.42102L2.50675 9.43567L2.5087 9.43665L6.24405 13.0734H6.24503C6.54974 13.3701 6.77756 13.7372 6.90909 14.1417C7.04052 14.5461 7.0718 14.9765 6.99991 15.3956L6.11905 20.5343L6.11807 20.5363C6.1171 20.5418 6.11792 20.5476 6.12003 20.5529C6.12207 20.5579 6.12544 20.5623 6.12979 20.5656C6.13427 20.5688 6.13991 20.571 6.14542 20.5714C6.15102 20.5718 6.15706 20.5711 6.16202 20.5685L6.163 20.5675L10.7802 18.1398L10.9228 18.0695C11.2605 17.9174 11.6274 17.839 11.9989 17.839C12.4236 17.839 12.8427 17.9423 13.2187 18.1398L17.8368 20.5675L17.8388 20.5685C17.8437 20.5711 17.8498 20.5728 17.8554 20.5724C17.8607 20.5719 17.8657 20.5696 17.87 20.5665C17.8745 20.5633 17.8787 20.5589 17.8808 20.5538C17.8828 20.5487 17.8836 20.5427 17.8827 20.5372L17.8817 20.5343L16.9999 15.3947C16.9283 14.9757 16.9592 14.5449 17.0907 14.1407C17.2222 13.7367 17.4505 13.3709 17.7548 13.0743V13.0734L21.4911 9.43567C21.4949 9.43188 21.4976 9.42716 21.4989 9.422C21.5003 9.41657 21.4997 9.41072 21.498 9.4054C21.4962 9.40012 21.4934 9.39532 21.4892 9.39172C21.485 9.38822 21.4799 9.38575 21.4745 9.38489H21.4735L16.3075 8.62903C15.8876 8.56739 15.4887 8.40405 15.1454 8.15442C14.8452 7.93605 14.5948 7.65726 14.411 7.33606L14.3368 7.19543L12.0263 2.51672C12.0238 2.51186 12.0202 2.50791 12.0155 2.505C12.0108 2.50208 12.0054 2.50015 11.9999 2.50012C11.9944 2.50012 11.989 2.50209 11.9843 2.505Z" fill="black"/>
</svg>
