<svg width="24" height="24" viewBox="0 0 24 24" fill="none" xmlns="http://www.w3.org/2000/svg">
<path d="M12.2119 1.01477C12.4222 1.04421 12.6248 1.11772 12.8066 1.23059C12.9884 1.34347 13.1439 1.49257 13.2636 1.66809L13.371 1.85168V1.85266L15.6816 6.53137C15.762 6.694 15.8806 6.83477 16.0273 6.94153C16.1742 7.0484 16.3456 7.11826 16.5253 7.14465H16.5244L21.6904 7.90051H21.6894C21.9012 7.93124 22.1032 8.00626 22.2832 8.11926L22.456 8.24426L22.6083 8.3927C22.7031 8.49831 22.7825 8.6167 22.8447 8.74426L22.9248 8.94153L22.9765 9.14856C23.0134 9.35775 23.0063 9.57361 22.955 9.78137C22.8866 10.0583 22.7423 10.3107 22.538 10.5099L22.5371 10.5109L18.8017 14.1486C18.6716 14.2754 18.5738 14.4318 18.5175 14.6046C18.4613 14.7774 18.448 14.9616 18.4785 15.1407L19.3593 20.2765L19.3818 20.4894C19.3892 20.7026 19.352 20.916 19.2714 21.1154C19.164 21.3812 18.9839 21.6119 18.7519 21.7804C18.5199 21.9489 18.245 22.0486 17.9589 22.0685C17.6729 22.0884 17.3869 22.0275 17.1337 21.8927V21.8917L12.5205 19.4669C12.3597 19.3826 12.1805 19.339 11.999 19.339C11.8177 19.339 11.639 19.3828 11.4785 19.4669L6.86225 21.8927L6.86323 21.8937C6.61022 22.0275 6.32454 22.0878 6.03901 22.0675C5.75361 22.0472 5.47943 21.9477 5.248 21.7794C5.0165 21.6111 4.83678 21.3807 4.72944 21.1154C4.6489 20.9161 4.61181 20.7026 4.61909 20.4894L4.64057 20.2775L5.52143 15.1417C5.55213 14.9625 5.53855 14.7785 5.48237 14.6056C5.44019 14.4759 5.37498 14.3549 5.28999 14.2491L5.19819 14.1486L1.46186 10.5118L1.46284 10.5109C1.25828 10.3123 1.11297 10.061 1.04389 9.7843C0.974532 9.50628 0.983795 9.21408 1.07221 8.94153L1.15229 8.74329C1.24581 8.55141 1.37926 8.38063 1.54389 8.24231C1.76322 8.05806 2.02981 7.93872 2.31342 7.89856L7.47456 7.14465L7.60737 7.11633C7.73834 7.08075 7.86219 7.02173 7.9726 6.94153C8.11958 6.83474 8.23878 6.69423 8.31928 6.53137L10.6279 1.85266L10.6289 1.85168C10.7553 1.59626 10.9503 1.381 11.1923 1.23059C11.4346 1.08017 11.7148 1.00012 11.9999 1.00012L12.2119 1.01477ZM17.3896 20.6241V20.6193L17.3876 20.6115L17.3896 20.6241ZM18.0693 20.1251L18.0742 20.1271C18.0719 20.1259 18.0696 20.1243 18.0673 20.1232L18.0693 20.1251ZM5.92768 20.1261L5.93061 20.1251L5.93354 20.1232C5.93165 20.1241 5.92957 20.1251 5.92768 20.1261ZM10.1123 7.41614V7.41711C9.88826 7.87044 9.55745 8.26247 9.14839 8.55969C8.73934 8.85681 8.26389 9.05024 7.76362 9.12317L3.53706 9.74036L6.5937 12.7159C6.95632 13.0692 7.22814 13.5051 7.38471 13.9865C7.54128 14.4679 7.57767 14.9806 7.49214 15.4796L6.77143 19.6827L10.5478 17.6974V17.6964C10.9954 17.4614 11.4934 17.339 11.999 17.339C12.5046 17.339 13.0034 17.4613 13.4511 17.6964L17.2285 19.6827L16.5068 15.4796V15.4786C16.4216 14.9798 16.4596 14.4677 16.6162 13.9865C16.7727 13.5052 17.0438 13.0691 17.4062 12.7159L20.4599 9.74133L16.2353 9.12317H16.2343C15.7346 9.04978 15.26 8.85669 14.8515 8.55969C14.4429 8.26252 14.1125 7.87005 13.8886 7.41711H13.8876L11.999 3.59192L10.1123 7.41614Z" fill="black"/>
</svg>
