<svg width="24" height="24" viewBox="0 0 24 24" fill="none" xmlns="http://www.w3.org/2000/svg">
<rect width="24" height="24" rx="2" fill="#FFEDF9"/>
<path d="M11.1744 10.734C11.1922 9.639 11.2492 6.07663 11.5289 5.32221C11.5807 5.18278 11.7426 5.0974 11.9116 5.0407C12.0805 4.98399 12.2907 4.98145 12.4488 5.0657C12.7662 5.2349 12.8954 5.90373 13.0492 7.03557C13.4792 10.1977 13.4891 11.1097 13.6669 11.3689C13.7542 11.496 13.9316 11.527 14.0686 11.5389C15.086 11.6278 16.7003 10.468 18.1305 10.285C18.62 10.2224 18.9602 10.2806 19.2518 10.3429C19.5223 10.4007 19.7077 10.6055 19.8624 10.8151C19.9485 10.9316 20.0049 11.1006 19.9997 11.2701C19.9944 11.4396 19.9144 11.6125 19.7864 11.7606C19.6583 11.9087 19.4847 12.0267 18.4644 12.4397C17.444 12.8527 15.5822 13.5572 14.6558 14.0475C13.7294 14.5378 13.7948 14.7926 13.9283 15.0918C14.5582 16.5033 15.1516 17.9059 15.2205 18.697C15.2319 18.8283 15.0737 18.8952 14.9257 18.9423C14.5964 19.0472 14.2168 18.9952 13.8448 18.8968C12.6288 18.575 11.1024 16.4048 10.5299 15.4657C10.4487 15.3323 10.4283 15.1464 10.1389 15.2146C8.40219 15.6243 7.55326 16.2137 6.84157 16.1088C6.0031 15.9853 5.4368 14.8694 5.16182 14.3648C4.88836 13.8631 4.99667 12.9026 5.22643 12.2729C5.42601 11.726 6.87857 11.7597 7.94636 11.6405C8.06636 11.6272 7.99153 11.4407 7.90545 11.3287C7.42495 10.7036 6.63664 9.9494 6.32021 9.25872C6.01941 8.60218 6.10632 8.00478 6.18668 7.61172C6.25729 7.26627 6.69687 7.23018 6.9735 7.20764C7.60415 7.15624 8.26546 7.4452 8.90842 7.90197C9.49918 8.55231 10.1707 9.64864 10.6573 10.3152C10.7814 10.4376 10.9268 10.5599 11.2547 10.791" stroke="#FFA7E2" stroke-width="2" stroke-linecap="round"/>
</svg>
