<svg width="24" height="24" viewBox="0 0 24 24" fill="none" xmlns="http://www.w3.org/2000/svg">
<path d="M12 1.5C12.5171 1.5 13.0196 1.66034 13.4395 1.95605L13.6133 2.09082L13.6162 2.09277L20.6162 8.09277H20.6152C20.8918 8.3271 21.1149 8.61844 21.2676 8.94727C21.4204 9.27686 21.5 9.63669 21.5 10V19C21.4999 19.6629 21.2363 20.2998 20.7676 20.7686C20.2988 21.2371 19.6628 21.5 19 21.5H5C4.33719 21.5 3.70122 21.2371 3.23242 20.7686C2.7637 20.2998 2.50013 19.6629 2.5 19V10C2.5 9.63669 2.57956 9.27686 2.73242 8.94727C2.88498 8.61866 3.10744 8.32701 3.38379 8.09277L10.3838 2.09277L10.3867 2.09082C10.8379 1.70954 11.4093 1.5 12 1.5ZM12 2.5C11.6456 2.5 11.3029 2.62579 11.0322 2.85449L4.03418 8.85254L4.03223 8.85449C3.86583 8.99518 3.73144 9.17054 3.63965 9.36816C3.54798 9.56588 3.5 9.78207 3.5 10V19C3.50013 19.3976 3.65826 19.7803 3.93945 20.0615C4.22071 20.3425 4.60241 20.5 5 20.5H8.5V13C8.5 12.6022 8.65815 12.2208 8.93945 11.9395C9.22076 11.6581 9.60217 11.5 10 11.5H14C14.3978 11.5 14.7792 11.6581 15.0605 11.9395C15.3419 12.2208 15.5 12.6022 15.5 13V20.5H19C19.3976 20.5 19.7793 20.3425 20.0605 20.0615C20.3417 19.7803 20.4999 19.3976 20.5 19V10C20.5 9.78207 20.452 9.56588 20.3604 9.36816C20.2686 9.17054 20.1342 8.99518 19.9678 8.85449L19.9658 8.85254L12.9678 2.85449L12.8633 2.77344C12.6114 2.59617 12.3101 2.5 12 2.5ZM10 12.5C9.86739 12.5 9.74025 12.5527 9.64648 12.6465C9.55272 12.7403 9.5 12.8674 9.5 13V20.5H14.5V13C14.5 12.8674 14.4473 12.7403 14.3535 12.6465C14.2597 12.5527 14.1326 12.5 14 12.5H10Z" fill="black"/>
</svg>
