<svg width="24" height="24" viewBox="0 0 24 24" fill="none" xmlns="http://www.w3.org/2000/svg">
<rect width="24" height="24" rx="2" fill="#65A55B"/>
<path d="M11.1699 6C12.5954 6.00001 13.7593 6.23204 14.6621 6.69531C15.5649 7.15859 16.2305 7.8233 16.6582 8.69043C17.0859 9.54574 17.2998 10.5736 17.2998 11.7734C17.2998 12.6761 17.1923 13.4598 16.9785 14.125C16.7647 14.7902 16.4737 15.3551 16.1055 15.8184C15.7492 16.2815 15.3334 16.6554 14.8584 16.9404C14.3832 17.2255 13.8783 17.4338 13.3438 17.5645C12.8093 17.6951 12.269 17.7607 11.7227 17.7607H7V6H11.1699ZM9.56641 15.6758H11.6514C12.3164 15.6757 12.8691 15.5331 13.3086 15.248C13.748 14.9511 14.08 14.523 14.3057 13.9648C14.5313 13.4066 14.6445 12.7237 14.6445 11.916C14.6445 11.2508 14.5732 10.6803 14.4307 10.2051C14.2881 9.71815 14.0741 9.32053 13.7891 9.01172C13.5159 8.70293 13.1658 8.47084 12.7383 8.31641C12.3225 8.16197 11.829 8.08496 11.2588 8.08496H9.56641V15.6758Z" fill="black"/>
</svg>
