<svg width="24" height="24" viewBox="0 0 24 24" fill="none" xmlns="http://www.w3.org/2000/svg">
<path d="M12 1C12.6202 1 13.2229 1.19234 13.7266 1.54688L13.9365 1.70898L13.9414 1.71289L20.9365 7.70898L21.0586 7.81738C21.3355 8.07864 21.561 8.39104 21.7217 8.7373C21.9051 9.1328 22 9.56405 22 10V19C21.9999 19.7955 21.6836 20.5596 21.1211 21.1221C20.5585 21.6844 19.7954 22 19 22H5C4.20458 22 3.44147 21.6844 2.87891 21.1221C2.31641 20.5596 2.00013 19.7955 2 19V10C2 9.56405 2.09491 9.1328 2.27832 8.7373C2.46193 8.3416 2.73035 7.99062 3.06348 7.70898L10.0586 1.71289L10.0635 1.70898C10.605 1.25135 11.291 1 12 1ZM12 3C11.7637 3 11.535 3.08378 11.3545 3.23633L11.3535 3.23535L4.35938 9.23145L4.35449 9.23633C4.24352 9.33018 4.15395 9.44726 4.09277 9.5791C4.03172 9.71086 4 9.85478 4 10V19C4.00013 19.265 4.10555 19.5206 4.29297 19.708C4.48046 19.8952 4.73502 20 5 20H8V13C8 12.4696 8.21087 11.961 8.58594 11.5859C8.96101 11.2109 9.46957 11 10 11H14C14.5304 11 15.039 11.2109 15.4141 11.5859C15.7891 11.961 16 12.4696 16 13V20H19C19.265 20 19.5195 19.8952 19.707 19.708C19.8945 19.5206 19.9999 19.265 20 19V10C20 9.85478 19.9683 9.71086 19.9072 9.5791C19.8461 9.44726 19.7565 9.33018 19.6455 9.23633L19.6406 9.23145L12.6455 3.23535V3.23633C12.465 3.08378 12.2363 3 12 3ZM10 20H14V13H10V20Z" fill="black"/>
</svg>
