<svg width="24" height="24" viewBox="0 0 24 24" fill="none" xmlns="http://www.w3.org/2000/svg">
<rect width="24" height="24" rx="2" fill="#47A2D3"/>
<path d="M7 18V6H11.6771C12.3054 6 12.8755 6.05455 13.3874 6.16364C13.8994 6.26061 14.3531 6.40606 14.7487 6.6C15.1443 6.79394 15.4759 7.03636 15.7435 7.32727C16.0227 7.60606 16.2321 7.93333 16.3717 8.30909C16.5113 8.67273 16.5812 9.07879 16.5812 9.52727C16.5812 9.95152 16.5172 10.3394 16.3892 10.6909C16.2612 11.0303 16.0692 11.3273 15.8133 11.5818C15.5573 11.8364 15.2373 12.0485 14.8534 12.2182C14.4695 12.3758 14.0215 12.4848 13.5096 12.5455V12.8182C14.103 12.8788 14.5742 13.0242 14.9232 13.2545C15.2839 13.4727 15.5631 13.7697 15.7609 14.1455C15.9703 14.5212 16.1507 14.9879 16.3019 15.5455L17 18H14.2251L13.6841 15.7273C13.5794 15.2424 13.4282 14.8667 13.2304 14.6C13.0326 14.3212 12.7824 14.1273 12.4799 14.0182C12.1774 13.897 11.8109 13.8364 11.3805 13.8364H9.51309V18H7ZM9.51309 11.8727H11.5026C12.2938 11.8727 12.9046 11.7152 13.3351 11.4C13.7656 11.0848 13.9808 10.5939 13.9808 9.92727C13.9808 9.27273 13.7772 8.79394 13.37 8.49091C12.9744 8.17576 12.3752 8.01818 11.5724 8.01818H9.51309V11.8727Z" fill="black"/>
</svg>
