<svg width="24" height="24" viewBox="0 0 24 24" fill="none" xmlns="http://www.w3.org/2000/svg">
<path d="M17.9829 11.9999C17.9829 11.4635 18.1124 10.9348 18.3598 10.4589C18.6073 9.98298 18.9657 9.57358 19.4048 9.2655C19.6709 9.07184 19.8567 8.78668 19.9263 8.46472C19.9965 8.13958 19.9432 7.79966 19.7768 7.5116C19.6105 7.22363 19.3425 7.00783 19.0259 6.90613C18.709 6.8045 18.365 6.82423 18.062 6.96179C17.5781 7.18542 17.0477 7.28972 16.5151 7.26648C15.9792 7.24305 15.4564 7.09119 14.9917 6.82312C14.527 6.55503 14.1338 6.17865 13.8452 5.72644C13.5567 5.27418 13.3808 4.75884 13.3335 4.22449V4.22351C13.3004 3.8943 13.1467 3.58882 12.9018 3.36609C12.6552 3.1418 12.3338 3.0175 12.0005 3.01746C11.6671 3.01746 11.3458 3.14187 11.0991 3.36609C10.8525 3.59036 10.6981 3.89853 10.6665 4.23035C10.6633 4.2637 10.6581 4.29677 10.6518 4.32898C10.592 4.82579 10.4234 5.30381 10.1538 5.72644C9.86524 6.17871 9.47199 6.555 9.00731 6.82312C8.54259 7.09126 8.01989 7.24303 7.48387 7.26648C6.94782 7.28991 6.41361 7.18446 5.92723 6.95789V6.95691C5.62693 6.82414 5.28793 6.80655 4.97508 6.9071C4.65866 7.00885 4.39138 7.2248 4.22508 7.51257C4.0588 7.80052 4.00561 8.14065 4.07567 8.4657C4.14581 8.79054 4.334 9.07758 4.60399 9.27136H4.60301C5.03844 9.5788 5.39419 9.98586 5.64012 10.4589C5.88754 10.9347 6.01708 11.4635 6.01708 11.9999C6.01702 12.536 5.88741 13.0642 5.64012 13.5399C5.39409 14.0131 5.0377 14.4199 4.60204 14.7274L4.60301 14.7284C4.33277 14.9221 4.144 15.2091 4.07372 15.5341C4.00348 15.8593 4.05667 16.2 4.22313 16.4882C4.38961 16.7761 4.65737 16.992 4.97411 17.0936C5.29079 17.1952 5.63413 17.1753 5.937 17.038C6.42109 16.8139 6.95182 16.7092 7.48485 16.7323C8.02096 16.7556 8.54343 16.9076 9.00829 17.1757C9.47319 17.4438 9.8671 17.8199 10.1557 18.2723C10.4432 18.7229 10.6175 19.2362 10.6655 19.7684H10.6665C10.6981 20.1004 10.8524 20.4084 11.0991 20.6327C11.3458 20.857 11.6671 20.9813 12.0005 20.9813C12.3339 20.9813 12.6552 20.857 12.9018 20.6327C13.1485 20.4084 13.3029 20.1003 13.3345 19.7684C13.3826 19.2364 13.5579 18.7238 13.8452 18.2733C14.1338 17.821 14.527 17.4448 14.9917 17.1766C15.4564 16.9085 15.9791 16.7557 16.5151 16.7323C17.0478 16.7091 17.5781 16.8143 18.062 17.038L18.1772 17.0839C18.4503 17.1785 18.7485 17.1826 19.0259 17.0936C19.3425 16.992 19.6104 16.7761 19.7768 16.4882C19.9433 16.2 19.9965 15.8593 19.9263 15.5341C19.856 15.2092 19.6671 14.9221 19.397 14.7284V14.7274C18.9615 14.42 18.6058 14.013 18.3598 13.5399C18.1125 13.0642 17.983 12.5361 17.9829 11.9999ZM19.9829 11.9999C19.983 12.215 20.035 12.4272 20.1343 12.618C20.2086 12.761 20.308 12.8888 20.4272 12.996L20.5532 13.0966L20.561 13.1024C21.2352 13.5854 21.7063 14.3015 21.8813 15.1122C22.0564 15.9229 21.9232 16.77 21.5083 17.4882C21.0934 18.2063 20.426 18.7446 19.6362 18.9979C18.8465 19.2512 17.991 19.2011 17.2358 18.8583L17.2261 18.8544C17.031 18.7636 16.8169 18.721 16.602 18.7303C16.387 18.7398 16.1771 18.8005 15.9907 18.9081C15.8043 19.0157 15.6465 19.167 15.5307 19.3485C15.415 19.53 15.3446 19.7367 15.3257 19.951V19.9579C15.247 20.7851 14.8622 21.5531 14.2475 22.1122C13.6327 22.6713 12.8315 22.9813 12.0005 22.9813C11.1694 22.9813 10.3683 22.6714 9.7534 22.1122C9.13861 21.553 8.75397 20.7852 8.67528 19.9579L8.6743 19.951C8.65538 19.7366 8.58498 19.53 8.46922 19.3485C8.35342 19.167 8.1958 19.0157 8.00926 18.9081C7.82274 18.8005 7.61306 18.7397 7.39794 18.7303C7.18294 18.721 6.96897 18.7635 6.77391 18.8544L6.76415 18.8583C6.00904 19.2011 5.15344 19.2511 4.36376 18.9979C3.57401 18.7446 2.90661 18.2063 2.49169 17.4882C2.07677 16.77 1.94358 15.9229 2.11864 15.1122C2.29373 14.3015 2.76473 13.5854 3.43895 13.1024L3.44676 13.0966C3.62277 12.973 3.76647 12.8088 3.86571 12.618C3.96493 12.4272 4.01702 12.215 4.01708 11.9999C4.01708 11.7848 3.96488 11.5726 3.86571 11.3817C3.76644 11.1908 3.6229 11.0258 3.44676 10.9022L3.43798 10.8964C2.76464 10.4131 2.29523 9.69678 2.12059 8.8866C1.94597 8.07643 2.0782 7.23028 2.49266 6.51257C2.90713 5.79486 3.57377 5.2565 4.36278 5.00281C5.05297 4.78092 5.79395 4.7907 6.47411 5.02527L6.76219 5.13953L6.77196 5.14441C6.96696 5.23525 7.18107 5.27776 7.39598 5.26843C7.61094 5.25904 7.82092 5.19818 8.00731 5.0907C8.19377 4.98312 8.3515 4.83175 8.46727 4.65027C8.58303 4.4688 8.65339 4.26214 8.67235 4.04773C8.67603 4.00618 8.6824 3.96544 8.6909 3.92566C8.79304 3.1427 9.1674 2.41954 9.7534 1.8866C10.3682 1.32748 11.1694 1.01746 12.0005 1.01746C12.8315 1.0175 13.6327 1.32745 14.2475 1.8866C14.7855 2.37589 15.1471 3.02526 15.2817 3.73425L15.3257 4.04187V4.04773C15.3446 4.26204 15.4151 4.46886 15.5307 4.65027C15.6465 4.8317 15.8043 4.98312 15.9907 5.0907C16.1771 5.19826 16.387 5.25901 16.602 5.26843C16.817 5.27783 17.031 5.2352 17.2261 5.14441L17.2358 5.1405C17.9909 4.79778 18.8466 4.74763 19.6362 5.00085C20.4259 5.25414 21.0934 5.79252 21.5083 6.51062C21.9232 7.22875 22.0563 8.07591 21.8813 8.8866C21.7063 9.69733 21.2353 10.4143 20.561 10.8973L20.5532 10.9022C20.3771 11.0258 20.2335 11.1908 20.1343 11.3817C20.035 11.5726 19.9829 11.7847 19.9829 11.9999Z" fill="black"/>
<path d="M14 12C14 10.8954 13.1046 10 12 10C10.8954 10 10 10.8954 10 12C10 13.1046 10.8954 14 12 14C13.1046 14 14 13.1046 14 12ZM16 12C16 14.2091 14.2091 16 12 16C9.79086 16 8 14.2091 8 12C8 9.79086 9.79086 8 12 8C14.2091 8 16 9.79086 16 12Z" fill="black"/>
</svg>
